# xmcd CD database file
#
# Track frame offsets:
#	150
#	14312
#	30745
#	45318
#	58777
#	73594
#	87067
#	102351
#	115712
#	129603
#	148948
#	169519
#	187297
#	201480
#
# Disc length: 3178 seconds
#
# Revision: 0
# Processed by: cddbd v1.5.1PL0 Copyright (c) Steve Scherf et al.
# Submitted via: CDex 1.51
#
DISCID=c80c680e
DTITLE=Duke Ellington - The Age Of Ellington [CD2]
DYEAR=1974
DGENRE=Jazz
TTITLE0=Black And Tan Fantasy
TTITLE1=East St Louis Toodle-oo
TTITLE2=Creole Love Call
TTITLE3=Transbluency
TTITLE4=Jack The Bear
TTITLE5=Harlem Air Shift
TTITLE6=Sepia Panorama
TTITLE7=Conga Brava
TTITLE8=Rockabye River
TTITLE9=Blood Count
TTITLE10=Rain Check
TTITLE11=Lotus Blossom
TTITLE12=The Twitch
TTITLE13=New World A'Coming
EXTD=YEAR: 1974
EXTT0=
EXTT1=
EXTT2=
EXTT3=
EXTT4=
EXTT5=
EXTT6=
EXTT7=
EXTT8=
EXTT9=
EXTT10=
EXTT11=
EXTT12=
EXTT13=
PLAYORDER=
